<mxfile host="app.diagrams.net" modified="2022-07-14T09:09:44.014Z" agent="5.0 (Macintosh; Intel Mac OS X 10_15_7) AppleWebKit/537.36 (KHTML, like Gecko) Chrome/103.0.0.0 Safari/537.36" etag="OhBUGzTxZcbspJdI62FP" version="20.0.1" type="github">
  <diagram id="Stx5JAX-qdgsyUQvtUhM" name="Page-1">
    <mxGraphModel dx="937" dy="465" grid="1" gridSize="10" guides="1" tooltips="1" connect="1" arrows="1" fold="1" page="1" pageScale="1" pageWidth="827" pageHeight="1169" math="0" shadow="0">
      <root>
        <mxCell id="0" />
        <mxCell id="1" parent="0" />
        <mxCell id="71bsQ3fBOGq2dIkgES-w-4" value="" style="verticalLabelPosition=bottom;verticalAlign=top;html=1;shape=mxgraph.basic.rect;fillColor2=none;strokeWidth=1;size=20;indent=5;" parent="1" vertex="1">
          <mxGeometry x="54" y="250" width="756" height="300" as="geometry" />
        </mxCell>
        <mxCell id="71bsQ3fBOGq2dIkgES-w-7" value="调度管理" style="text;html=1;strokeColor=none;fillColor=none;align=center;verticalAlign=middle;whiteSpace=wrap;rounded=0;" parent="1" vertex="1">
          <mxGeometry x="64" y="510" width="60" height="30" as="geometry" />
        </mxCell>
        <mxCell id="71bsQ3fBOGq2dIkgES-w-10" value="数据存储" style="text;html=1;strokeColor=none;fillColor=none;align=center;verticalAlign=middle;whiteSpace=wrap;rounded=0;" parent="1" vertex="1">
          <mxGeometry x="65" y="453" width="60" height="30" as="geometry" />
        </mxCell>
        <mxCell id="71bsQ3fBOGq2dIkgES-w-15" value="" style="line;strokeWidth=2;html=1;dashed=1;" parent="1" vertex="1">
          <mxGeometry x="68" y="491" width="676" height="10" as="geometry" />
        </mxCell>
        <mxCell id="71bsQ3fBOGq2dIkgES-w-17" value="" style="line;strokeWidth=2;html=1;dashed=1;" parent="1" vertex="1">
          <mxGeometry x="62" y="399" width="676" height="10" as="geometry" />
        </mxCell>
        <mxCell id="71bsQ3fBOGq2dIkgES-w-18" value="计算引擎" style="text;html=1;strokeColor=none;fillColor=none;align=center;verticalAlign=middle;whiteSpace=wrap;rounded=0;" parent="1" vertex="1">
          <mxGeometry x="67" y="360" width="60" height="30" as="geometry" />
        </mxCell>
        <mxCell id="71bsQ3fBOGq2dIkgES-w-27" value="hive" style="rounded=0;whiteSpace=wrap;html=1;fillColor=#d5e8d4;strokeColor=#82b366;" parent="1" vertex="1">
          <mxGeometry x="140" y="360" width="87" height="30" as="geometry" />
        </mxCell>
        <mxCell id="71bsQ3fBOGq2dIkgES-w-28" value="flink" style="rounded=0;whiteSpace=wrap;html=1;fillColor=#d5e8d4;strokeColor=#82b366;" parent="1" vertex="1">
          <mxGeometry x="340" y="360" width="90" height="30" as="geometry" />
        </mxCell>
        <mxCell id="71bsQ3fBOGq2dIkgES-w-32" value="" style="line;strokeWidth=2;html=1;dashed=1;" parent="1" vertex="1">
          <mxGeometry x="68" y="341" width="676" height="10" as="geometry" />
        </mxCell>
        <mxCell id="71bsQ3fBOGq2dIkgES-w-40" value="应用平台" style="text;html=1;strokeColor=none;fillColor=none;align=center;verticalAlign=middle;whiteSpace=wrap;rounded=0;" parent="1" vertex="1">
          <mxGeometry x="67" y="272" width="60" height="30" as="geometry" />
        </mxCell>
        <mxCell id="dX7mE__AFyakDy_ju7Y1-2" value="CDH&lt;br&gt;集群" style="rounded=0;whiteSpace=wrap;html=1;fillColor=#d5e8d4;strokeColor=#82b366;" parent="1" vertex="1">
          <mxGeometry x="760" y="310" width="40" height="230" as="geometry" />
        </mxCell>
        <mxCell id="dX7mE__AFyakDy_ju7Y1-4" value="权限" style="rounded=0;whiteSpace=wrap;html=1;fillColor=#d5e8d4;strokeColor=#82b366;" parent="1" vertex="1">
          <mxGeometry x="70" y="313" width="680" height="20" as="geometry" />
        </mxCell>
        <mxCell id="dX7mE__AFyakDy_ju7Y1-5" value="权限" style="rounded=0;whiteSpace=wrap;html=1;fillColor=#d5e8d4;strokeColor=#82b366;" parent="1" vertex="1">
          <mxGeometry x="62" y="420" width="680" height="20" as="geometry" />
        </mxCell>
        <mxCell id="2WgDr4XJ2Vin9T-NBg1W-1" value="hdfs" style="rounded=0;whiteSpace=wrap;html=1;fillColor=#d5e8d4;strokeColor=#82b366;" parent="1" vertex="1">
          <mxGeometry x="144" y="451" width="596" height="30" as="geometry" />
        </mxCell>
        <mxCell id="_qUXB8ljSRvc9fDxW8by-1" value="yarn" style="rounded=0;whiteSpace=wrap;html=1;fillColor=#d5e8d4;strokeColor=#82b366;" parent="1" vertex="1">
          <mxGeometry x="144" y="510" width="596" height="30" as="geometry" />
        </mxCell>
        <mxCell id="FvGHZjvooX095oFdFVIx-2" value="impala" style="rounded=0;whiteSpace=wrap;html=1;fillColor=#d5e8d4;strokeColor=#82b366;" vertex="1" parent="1">
          <mxGeometry x="240" y="360" width="87" height="30" as="geometry" />
        </mxCell>
        <mxCell id="FvGHZjvooX095oFdFVIx-3" value="" style="rounded=0;whiteSpace=wrap;html=1;fillColor=#d5e8d4;strokeColor=#82b366;" vertex="1" parent="1">
          <mxGeometry x="59" y="150" width="23" height="20" as="geometry" />
        </mxCell>
        <mxCell id="FvGHZjvooX095oFdFVIx-4" value="开源" style="text;html=1;strokeColor=none;fillColor=none;align=center;verticalAlign=middle;whiteSpace=wrap;rounded=0;" vertex="1" parent="1">
          <mxGeometry x="86" y="145" width="60" height="30" as="geometry" />
        </mxCell>
        <mxCell id="FvGHZjvooX095oFdFVIx-5" value="" style="rounded=0;whiteSpace=wrap;html=1;fillColor=#e1d5e7;strokeColor=#9673a6;" vertex="1" parent="1">
          <mxGeometry x="57.5" y="190" width="26" height="20" as="geometry" />
        </mxCell>
        <mxCell id="FvGHZjvooX095oFdFVIx-8" value="供应商采购" style="text;html=1;strokeColor=none;fillColor=none;align=center;verticalAlign=middle;whiteSpace=wrap;rounded=0;" vertex="1" parent="1">
          <mxGeometry x="86" y="185" width="74" height="30" as="geometry" />
        </mxCell>
        <mxCell id="FvGHZjvooX095oFdFVIx-9" value="starrocks" style="rounded=0;whiteSpace=wrap;html=1;fillColor=#e1d5e7;strokeColor=#9673a6;" vertex="1" parent="1">
          <mxGeometry x="440" y="360" width="100" height="30" as="geometry" />
        </mxCell>
        <mxCell id="FvGHZjvooX095oFdFVIx-10" value="dolphinScheduler" style="rounded=0;whiteSpace=wrap;html=1;fillColor=#d5e8d4;strokeColor=#82b366;" vertex="1" parent="1">
          <mxGeometry x="250" y="272" width="110" height="30" as="geometry" />
        </mxCell>
        <mxCell id="FvGHZjvooX095oFdFVIx-12" value="SmartBI" style="rounded=0;whiteSpace=wrap;html=1;fillColor=#e1d5e7;strokeColor=#9673a6;" vertex="1" parent="1">
          <mxGeometry x="133.5" y="272" width="100" height="30" as="geometry" />
        </mxCell>
      </root>
    </mxGraphModel>
  </diagram>
</mxfile>
